<svg width="36" height="36" viewBox="0 0 36 36" fill="none" xmlns="http://www.w3.org/2000/svg">
<path d="M33.7291 0H1.97094C0.882088 0 0 0.882088 0 1.97094V33.7305C0 34.8179 0.882088 35.7 1.97094 35.7H19.0697V21.8752H14.4169V16.4874H19.0697V12.5143C19.0697 7.90309 21.8856 5.39219 26 5.39219C27.9709 5.39219 29.6637 5.53945 30.1576 5.6049V10.4244L27.3046 10.4259C25.0674 10.4259 24.6345 11.4894 24.6345 13.0483V16.4889H29.9701L29.2755 21.8767H24.6345V35.7H33.732C34.8179 35.7 35.7 34.8179 35.7 33.7291V1.97094C35.7 0.882088 34.8179 0 33.7291 0Z" fill="white"/>
</svg>
