<svg width="37" height="36" viewBox="0 0 37 36" fill="none" xmlns="http://www.w3.org/2000/svg">
<path d="M30.2798 0H6.82012C3.44012 0 0.699951 2.74017 0.699951 6.12017V29.5802C0.699951 32.9598 3.44012 35.7 6.82012 35.7H30.2802C33.6598 35.7 36.4 32.9598 36.4 29.5798V6.12017C36.4 2.74017 33.6598 0 30.2798 0ZM12.9788 14.7548C12.9811 14.7508 12.9839 14.7465 12.9871 14.7417C13.0581 14.614 13.1343 14.4898 13.214 14.3677C13.2608 14.2959 13.3104 14.2268 13.36 14.157C13.4151 14.0801 13.4714 14.0047 13.5297 13.9301C13.5797 13.8659 13.6285 13.8016 13.6813 13.7397C13.7804 13.6223 13.884 13.5085 13.9915 13.3982C14.0438 13.3447 14.099 13.2931 14.1533 13.2411C14.2306 13.1673 14.3096 13.0956 14.3909 13.0257C14.4452 12.9789 14.4988 12.9317 14.5547 12.8865C14.6805 12.785 14.8106 12.6874 14.9439 12.5954C14.9922 12.562 15.043 12.5311 15.0926 12.4994C15.1981 12.4307 15.3056 12.3653 15.4155 12.3026C15.4682 12.2729 15.5206 12.2423 15.5742 12.2138C15.7269 12.1332 15.882 12.0571 16.041 11.9889C16.0779 11.973 16.116 11.9599 16.1529 11.9448C16.2893 11.8893 16.4278 11.8385 16.569 11.7925C16.6194 11.7758 16.6694 11.7596 16.7197 11.7445C16.8951 11.6921 17.072 11.6449 17.2529 11.6077C17.2727 11.6033 17.2937 11.6009 17.3135 11.5969C17.4797 11.564 17.6487 11.5394 17.8189 11.5196C17.8693 11.514 17.9196 11.5089 17.9696 11.5041C18.1608 11.4867 18.354 11.4748 18.5496 11.4748C18.7451 11.4748 18.9379 11.4867 19.1295 11.5041C19.1795 11.5089 19.2298 11.514 19.2798 11.5196C19.4508 11.539 19.6194 11.564 19.7856 11.5969C19.8058 11.6009 19.8268 11.6033 19.8463 11.6077C20.0271 11.6449 20.2041 11.6921 20.3794 11.7445C20.4298 11.76 20.4793 11.7762 20.5297 11.7925C20.6709 11.8389 20.8102 11.8901 20.947 11.9452C20.9843 11.9603 21.0216 11.973 21.0577 11.9889C21.2167 12.0571 21.3722 12.1332 21.5253 12.2142C21.5781 12.2419 21.6301 12.2721 21.6824 12.3014C21.7935 12.3641 21.9022 12.4307 22.0093 12.4998C22.0573 12.5315 22.1073 12.5612 22.1545 12.5942C22.2889 12.6866 22.4194 12.7846 22.546 12.8869C22.6007 12.9313 22.6535 12.9777 22.7066 13.0238C22.7887 13.0948 22.8693 13.1677 22.9478 13.2427C23.0009 13.2939 23.0553 13.3439 23.1061 13.3966C23.2148 13.5073 23.3187 13.6223 23.419 13.7409C23.4702 13.8012 23.5182 13.8643 23.567 13.927C23.6265 14.0031 23.6844 14.0805 23.7407 14.1594C23.7895 14.2276 23.8383 14.2959 23.8843 14.3661C24.5396 15.3681 24.924 16.5636 24.924 17.85C24.924 21.37 22.0692 24.2248 18.5492 24.2248C15.0283 24.2248 12.1743 21.37 12.1743 17.85C12.1751 16.7258 12.4683 15.6723 12.9788 14.7548ZM32.5749 27.6774C32.5749 30.1562 30.5654 32.1649 28.087 32.1649H9.01289C6.53412 32.1649 4.52501 30.1562 4.52501 27.6774V14.7548H8.83122C8.52023 15.7314 8.35006 16.7711 8.35006 17.85C8.35006 23.4827 12.9173 28.0499 18.55 28.0499C24.1826 28.0499 28.7498 23.4827 28.7498 17.85C28.7498 16.7707 28.5797 15.7314 28.2687 14.7548H32.5749V27.6774ZM32.5749 7.14C32.5749 7.42163 32.3468 7.65011 32.0648 7.65011H29.26C28.9779 7.65011 28.7498 7.42203 28.7498 7.14V4.33517C28.7498 4.05354 28.9779 3.82506 29.26 3.82506H32.0648C32.3468 3.82506 32.5749 4.05354 32.5749 4.33517V7.14Z" fill="white"/>
</svg>
