<svg width="35" height="35" viewBox="0 0 35 35" fill="none" xmlns="http://www.w3.org/2000/svg">
<path fill-rule="evenodd" clip-rule="evenodd" d="M8.8539 5.83688C8.5949 5.83632 8.34523 5.86563 8.10798 5.92137C7.78275 5.20453 7.35315 4.56142 6.86453 4.07281C6.03522 3.24349 4.72726 2.9165 2.91667 2.9165V5.83317C4.02274 5.83317 4.65923 5.99229 4.80214 6.1352C5.35334 6.68641 5.83333 7.80639 5.83333 8.74984L5.84799 8.95608L7.27697 18.9589C4.88594 19.083 3.03362 20.9398 2.91846 23.2609L2.91667 24.7915C3.05787 27.1889 4.90402 29.0331 7.20889 29.1642L7.53996 29.1647C8.14004 30.8649 9.76108 32.0832 11.6667 32.0832C13.5716 32.0832 15.1921 30.8657 15.7927 29.1665H19.2073C19.8079 30.8657 21.4284 32.0832 23.3333 32.0832C25.7496 32.0832 27.7083 30.1244 27.7083 27.7082C27.7083 25.2919 25.7496 23.3332 23.3333 23.3332C21.4284 23.3332 19.8079 24.5506 19.2073 26.2498H15.7927C15.1921 24.5506 13.5716 23.3332 11.6667 23.3332C9.76177 23.3332 8.14121 24.5506 7.54061 26.2498H7.29167C6.54793 26.2052 5.88078 25.5388 5.83072 24.7042L5.83333 23.3332C5.87266 22.5767 6.53525 21.9142 7.36394 21.873L10.2429 21.8738L10.2638 21.8748H24.9621L25.1773 21.8065C26.2831 21.4557 27.1682 20.623 27.5873 19.5452L27.7409 19.2411L28.2401 18.2522C28.7565 17.2285 29.273 16.203 29.7762 15.2012C31.0089 12.7472 31.7841 11.1877 31.9557 10.8047C32.8374 8.838 31.0515 7.32426 29.226 7.29203L8.8539 5.83688ZM24.4554 18.9584H10.3729C10.2793 18.9324 10.2079 18.8531 10.194 18.7543L8.76495 8.75117L29.0112 10.201C28.6569 10.9235 28.0129 12.2139 27.1699 13.8923L27.1487 13.9344C26.6675 14.8924 26.1518 15.9164 25.636 16.9387L25.1375 17.9264L24.9485 18.3005L24.8774 18.4658C24.8012 18.6781 24.65 18.8525 24.4554 18.9584ZM23.3333 29.1667C24.1387 29.1667 24.7917 28.5137 24.7917 27.7083C24.7917 26.9029 24.1387 26.25 23.3333 26.25C22.5279 26.25 21.875 26.9029 21.875 27.7083C21.875 28.5137 22.5279 29.1667 23.3333 29.1667ZM13.125 27.7083C13.125 28.5137 12.4721 29.1667 11.6667 29.1667C10.8612 29.1667 10.2083 28.5137 10.2083 27.7083C10.2083 26.9029 10.8612 26.25 11.6667 26.25C12.4721 26.25 13.125 26.9029 13.125 27.7083Z" fill="#3D3D3D"/>
</svg>
