<svg width="34" height="30" viewBox="0 0 34 30" fill="none" xmlns="http://www.w3.org/2000/svg">
<path d="M34 3.48055C32.7638 4.07144 31.4352 4.46939 30.0408 4.64877C31.4646 3.73077 32.558 2.27615 33.0718 0.542658C31.7404 1.39282 30.2648 2.01085 28.694 2.34398C27.4382 0.901415 25.6448 0 23.6624 0C19.2118 0 15.9414 4.4709 16.9466 9.11213C11.2192 8.80312 6.14002 5.84865 2.73942 1.35815C0.933424 4.69399 1.80282 9.05787 4.87162 11.2677C3.74322 11.2285 2.67922 10.8954 1.75102 10.3391C1.67542 13.7775 3.96442 16.9942 7.27962 17.7102C6.30942 17.9936 5.24682 18.06 4.16602 17.8369C5.04242 20.7853 7.58762 22.9303 10.606 22.9906C7.70802 25.4371 4.05682 26.5299 0.400024 26.0657C3.45062 28.1715 7.07522 29.4 10.9672 29.4C23.766 29.4 30.997 17.7615 30.5602 7.32287C31.907 6.27524 33.076 4.96833 34 3.48055Z" fill="white"/>
</svg>
